<?xml version="1.0" encoding="iso-8859-1"?>
<!-- Generator: Adobe Illustrator 19.0.0, SVG Export Plug-In . SVG Version: 6.00 Build 0)  -->
<svg version="1.1" id="Capa_1" xmlns="http://www.w3.org/2000/svg" xmlns:xlink="http://www.w3.org/1999/xlink" x="0px" y="0px"
	 viewBox="0 0 512 512" style="enable-background:new 0 0 512 512;" xml:space="preserve">
<g><svg height="200pt" viewBox="-89 -55 512 512" width="312pt"><path id="yo" d="m352.398438 241h-192.796876c-8.285156 0-15 6.714844-15 15 0 61.425781 49.972657 111.398438 111.398438 111.398438s111.398438-49.972657 111.398438-111.398438c0-8.285156-6.714844-15-15-15zm-96.398438 96.398438c-39.761719 0-72.957031-28.65625-80.015625-66.398438h160.03125c-7.058594 37.742188-40.253906 66.398438-80.015625 66.398438zm0 0" stroke="white" fill="white"/></svg>
	<g>
		<path class="" d="M437.02,330.98c-27.883-27.882-61.071-48.523-97.281-61.018C378.521,243.251,404,198.548,404,148
			C404,66.393,337.607,0,256,0S108,66.393,108,148c0,50.548,25.479,95.251,64.262,121.962
			c-36.21,12.495-69.398,33.136-97.281,61.018C26.629,379.333,0,443.62,0,512h40c0-119.103,96.897-216,216-216s216,96.897,216,216
			h40C512,443.62,485.371,379.333,437.02,330.98z M256,256c-59.551,0-108-48.448-108-108S196.449,40,256,40
			c59.551,0,108,48.448,108,108S315.551,256,256,256z" stroke="white" fill="white"/>

	</g>
</g>
<g>
</g>
<g>
</g>
<g>
</g>
<g>
</g>
<g>
</g>
<g>
</g>
<g>
</g>
<g>
</g>
<g>
</g>
<g>
</g>
<g>
</g>
<g>
</g>
<g>
</g>
<g>
</g>
<g>
</g>
</svg>
